<svg xmlns="http://www.w3.org/2000/svg" width="200" height="240" viewBox="0 0 200 240" fill="none">
  <g opacity="0.3">
    <path d="M0 26.91L0 189.13C0 196.27 2.83 203.11 7.88 208.16C12.93 213.21 19.77 216.04 26.91 216.04L137.51 216.04C144.65 216.04 151.49 213.21 156.54 208.16C161.58 203.11 164.42 196.27 164.42 189.13L164.42 49.25L139.67 49.25C134.2 49.25 128.96 47.07 125.09 43.2C121.23 39.33 119.05 34.09 119.05 28.62L119.05 0L26.91 0C19.77 0 12.93 2.83 7.88 7.88C2.83 12.93 0 19.77 0 26.91Z" fill="#646cff"/>
  </g>
  <path d="M164.42 49.25L139.67 49.25C134.2 49.24 128.96 47.07 125.09 43.2C121.23 39.33 119.05 34.09 119.05 28.62L119.05 0L164.42 49.25Z" fill="#646cff"/>
  <circle cx="82" cy="110" r="46" fill="#646cff"/>
  <path d="M70 84 L114 110 L70 136 Z" fill="#FFFFFF"/>
  <path d="M58.63 171L183.67 171C192.54 171 199.73 178.19 199.73 187.06L199.73 224.34C199.73 233.21 192.54 240.4 183.67 240.4L58.63 240.4C49.76 240.4 42.57 233.21 42.57 224.34L42.57 187.06C42.57 178.19 49.76 171 58.63 171Z" fill="#646cff"/>
  <text x="121" y="220" fill="#FFFFFF" font-family="Arial, Helvetica, sans-serif" font-weight="700" font-size="38" text-anchor="middle" letter-spacing="-1">VIDEO</text>
</svg>
